<svg xmlns="http://www.w3.org/2000/svg" width="1160" height="348" viewBox="0 0 1160 348"><defs><clipPath id="clip-path"><path id="Mask" fill="#d4004b" d="M0 0h1160v363H0z"/></clipPath><clipPath id="clip-footer_large"><path d="M0 0h1160v348H0z"/></clipPath></defs><g id="footer_large" clip-path="url(#clip-footer_large)"><path fill="#fff" d="M0 0h1160v348H0z"/><g id="Gruppe_30"><g id="Footer_XXL"><g id="Gruppe_29"><g id="Rectangle"><path id="Mask-2" fill="#d4004b" d="M0 0h1160v363H0z"/><g id="Rectangle-2" clip-path="url(#clip-path)"><path id="Rectangle-3" transform="rotate(-10.02 -806.938 970.671)" fill="#fff" d="M0 0h1440v382H0z"/></g></g></g></g><g id="Löwe" transform="translate(207.561 184)"><path id="Combined-Shape" d="M314.766 0s-8.1 22.11-20.056 29.154l-1.25.673h-44.908c-9.18 0-24.484 10.285-25.5 35.488-1.5 29.175-15.171 44.576-43.407 45.262l-1.994.023H69c-15.3 0-31.626 2.57-31.626 19.542 0 18.524 20.917 21.615 30.607 22.643 0 0 133.137 15.946 143.846 15.946a11.879 11.879 0 0012.555-9.192l.2-1.093 3.057-11.321c-6.19.477-12.322.511-14.8-1.132l-.505-.409-6.123-6.174 8.162.513a89.476 89.476 0 0014.586-7l2.756-1.712 1.529-5.146a27.422 27.422 0 01-14.127-.91l-1.686-.631-6.123-6.174h8.161a113.657 113.657 0 0014.807-6.325l3.554-1.905 7.142-24.689-4.594-27.258 11.222 4.12a20.857 20.857 0 0110.709 12.863 28.713 28.713 0 019.5-4.717l1.728-.43h27.54a51.039 51.039 0 0119.863 7.716 93.692 93.692 0 0019.86 7.717c2.548.984 3.567 1.027 3.567 3.6s-2.591 18.515-2.591 18.515-3.057 10.285-9.18 10.285c-10.605.411-19.586.493-27.976.51h-6.2a11.853 11.853 0 00-12.246 6.688c-.437.881-.5.252-.508 1.025v.516h44.909a15.709 15.709 0 0011.728-4.119 27.881 27.881 0 006.632-12.35 4.593 4.593 0 019.18 0 32.255 32.255 0 01-8.636 18.515 24.878 24.878 0 01-16.787 7.206h-46.477v8.23h44.908a17.208 17.208 0 01-13.5 13.685l-1.291.205-10.709 1.542 9.18 7.2a71.294 71.294 0 018.162 8.709 50.1 50.1 0 018.754 19.729l.427 2.392 4.594 20.579a41.372 41.372 0 008.636 19.028 127.33 127.33 0 01-18.639 5.433l-3.816.741 64.772 50.92 25.5-9.772c9.8-.994 21.477 9.4 22.4 10.233l.058.053-17.342 1.541c0 .463-1.651 5.927-1.981 7.389l-.057.327-15.3 1.028 22.454 9.257a29.094 29.094 0 015.309 19.367l-.2 1.717-14.794-7.2-6.123 5.661-16.832-15.432v16.5s-4.688 15.6-12.261 20.061l-1 .517-.509-22.12-6.123-1.028 2.038-17.487-13.265 10.8-3.567-5.147-15.82 8.709s2.286-11.967 6.434-15.448l.708-.5 12.756-7.716s-24.224-9.412-49.309-19.785l-3.863-1.6-4.939-2.065c-22.966-9.642-44.35-19.261-45.964-22.277a40.536 40.536 0 01.51-11.826 108.878 108.878 0 01-20.917.514c-10.208-1.542-69.349-40.635-77.027-39.607-7.393.99-21.361 12.469-36.961 25.721l-1.806 1.537-66.822 66.863 29.588 11.321c4.385 3.433 7.834 18.118 8.139 19.446l.022.1-17.851-7.2a41.817 41.817 0 00-3.434 3.316l-.132.281-17.852-12.868s10.718 12.341 13.775 16.459a90.188 90.188 0 01-1.019 14.919 13.97 13.97 0 01-3.147 5.751l-.938.937-10.2-16.459q-1.686-.3-3.395-.428l-1.709-.086-7.652-19.542-1.019 21.093s-6.068 13.178-14.63 15.224l-1.183.208 2.038-16.973-5.614-6.174 8.635-20.581-10.709 3.083-4.594-4.12L0 314.315a17.582 17.582 0 012.038-7.715 28.086 28.086 0 018.646-9.31l1.553-.975 17.342-.514s5.7-14.087 12.132-29.232l1.768-4.147 1.782-4.141c6.235-14.412 12.312-27.63 13.905-28.318a51.344 51.344 0 0110.634.137l2.637.379 24.994-56.607s-30.072-4.119-31.091-4.119c-22.955-3.083-45.91-14.919-45.91-40.121 0-31.378 32.645-37.038 48.458-37.038 5.438-8.471 22.361-37.218 31.76-39.006l.885-.087h16.827l-12.26 9.785a186.345 186.345 0 00-9.052 25.471l-1.147 4.365h15.908C116.72 86.2 129.2 66.856 136.5 65.433l.818-.083h13.265l-9.69 7.716a77.87 77.87 0 00-6.9 17.046l-.753 2.988h44.909c18.36 0 27.541-8.23 27.541-27.772 0-24.483-14.922-34.888-24.658-35.463l-.845-.025h-44.909C122.488 24.175 113.852 0 113.852 0s8.805 2.817 18.477 5.754l1.386.42h51.515c11.838 0 22.716 14.917 28.5 32.171l.579 1.793.536-1.842c5.229-17.091 16.855-31.123 27.414-32.071l1.127-.051H294.9C305.076 3.6 314.766 0 314.766 0zm221.381 25.2l27.041 50.406L573.9 25.2l19.388 50.406L612.155 25.2l10.718 50.406L649.9 25.2h51.01l.008 41.662-61.718 25.72 61.214 26.745-62.743 22.12 58.657 30.35-63.252 15.945 54.071 36-62.233 6.689 45.4 43.2h-60.7l31.627 43.718-47.956 38.071-48.458-38.066 31.626-43.718h-60.7l45.911-43.2-62.743-6.689 54.581-36-63.766-15.947 59.167-30.35-62.743-22.12 61.214-26.745-62.232-25.719.51-41.662zm-378.51 190.28a159.44 159.44 0 0133.682 19.028c12.255 15.432-10.2 37.552-10.2 37.552s28.059 27.267 31.626 28.808l24.994-12.819a26.05 26.05 0 0119.863 10.8l-13.266.513 1.019 5.147-19.38 4.633 26.047 6.68c5.614 6.688 8.671 17.5 6.607 16.991l-12.246-4.119-3.057 7.2-23.974-18.514 7.143 18s-.519 15.945-11.227 19.542l-2.038-14.4-5.613.514-4.085-18.515-9.689 7.716-2.038-2.613-8.161 6.174a13.092 13.092 0 012.59-13.376l6.123-5.661s-57.664-31.883-56.135-36c0 0 9.18-7.2 10.2-13.89 1.529-10.294-7.142-21.093-16.322-28.295a215.385 215.385 0 0127.537-21.096zM417.319 60.65l1.514.093-8.162 11.827 6.124 6.174L402 96.231l18.361-2.613a17 17 0 0114.316 16.194v1.223l-15.3-2.055-2.591 4.633-14.286-1.026 2.038 17.487 12.246 4.633s-3.611 9.111-10.415 10.611l-1.313.188-13.773-8.706-48.458 76.637-4.085-18.515-.509-1.542a54.254 54.254 0 00-8.793-22.213l-1.406-1.963L377 105.419l-11.227-20.03a27.119 27.119 0 0110.907-22.216l1.338-.932 1.529 13.891h6.123v23.191L397.916 70a23.482 23.482 0 0117.9-9.345zM295.386 82.306c-.976 0-2.548.513-3.566.513-5.1 1.028-11.694 10.8-14.285 14.919a3.194 3.194 0 001.019 3.6c1.359.913 2.7.609 3.008-.913l.067-.628 3.057-4.633a9.845 9.845 0 009.689 7.716 10.277 10.277 0 0010.2-10.285 5.627 5.627 0 00-.509-2.613 1.861 1.861 0 011.2.257l.332.257 4.594 2.612c.976 1.028 3.057 0 3.566-1.027a2.284 2.284 0 00-.525-3.358l-.493-.239-4.594-2.056a25.056 25.056 0 00-12.76-4.122z" fill="#bf0044"/></g></g></g></svg>